<mxfile host="app.diagrams.net" modified="2024-04-20T16:51:20.753Z" agent="Mozilla/5.0 (Windows NT 10.0; Win64; x64) AppleWebKit/537.36 (KHTML, like Gecko) Chrome/124.0.0.0 Safari/537.36" etag="ju-b0RA3Jp_8FdgdraUT" version="24.2.7" type="github">
  <diagram name="Page-1" id="KPYW-OyQv8cY2algvdTE">
    <mxGraphModel dx="1555" dy="800" grid="1" gridSize="10" guides="1" tooltips="1" connect="1" arrows="1" fold="1" page="1" pageScale="1" pageWidth="4681" pageHeight="3300" math="0" shadow="0">
      <root>
        <mxCell id="0" />
        <mxCell id="1" parent="0" />
        <mxCell id="wiblz_3YF7afEmMh0GSC-5" value="Vendedores" style="swimlane;fontStyle=0;childLayout=stackLayout;horizontal=1;startSize=30;horizontalStack=0;resizeParent=1;resizeParentMax=0;resizeLast=0;collapsible=1;marginBottom=0;whiteSpace=wrap;html=1;" vertex="1" parent="1">
          <mxGeometry x="1760" y="1240" width="160" height="240" as="geometry" />
        </mxCell>
        <mxCell id="wiblz_3YF7afEmMh0GSC-11" value=".Id de Vendedor (PK)" style="text;strokeColor=none;fillColor=none;align=left;verticalAlign=middle;spacingLeft=4;spacingRight=4;overflow=hidden;points=[[0,0.5],[1,0.5]];portConstraint=eastwest;rotatable=0;whiteSpace=wrap;html=1;" vertex="1" parent="wiblz_3YF7afEmMh0GSC-5">
          <mxGeometry y="30" width="160" height="30" as="geometry" />
        </mxCell>
        <mxCell id="wiblz_3YF7afEmMh0GSC-10" value=".Nombre&amp;nbsp;" style="text;strokeColor=none;fillColor=none;align=left;verticalAlign=middle;spacingLeft=4;spacingRight=4;overflow=hidden;points=[[0,0.5],[1,0.5]];portConstraint=eastwest;rotatable=0;whiteSpace=wrap;html=1;" vertex="1" parent="wiblz_3YF7afEmMh0GSC-5">
          <mxGeometry y="60" width="160" height="30" as="geometry" />
        </mxCell>
        <mxCell id="wiblz_3YF7afEmMh0GSC-12" value=".Apellido&amp;nbsp;" style="text;strokeColor=none;fillColor=none;align=left;verticalAlign=middle;spacingLeft=4;spacingRight=4;overflow=hidden;points=[[0,0.5],[1,0.5]];portConstraint=eastwest;rotatable=0;whiteSpace=wrap;html=1;" vertex="1" parent="wiblz_3YF7afEmMh0GSC-5">
          <mxGeometry y="90" width="160" height="30" as="geometry" />
        </mxCell>
        <mxCell id="wiblz_3YF7afEmMh0GSC-13" value=".Edad&amp;nbsp;" style="text;strokeColor=none;fillColor=none;align=left;verticalAlign=middle;spacingLeft=4;spacingRight=4;overflow=hidden;points=[[0,0.5],[1,0.5]];portConstraint=eastwest;rotatable=0;whiteSpace=wrap;html=1;" vertex="1" parent="wiblz_3YF7afEmMh0GSC-5">
          <mxGeometry y="120" width="160" height="30" as="geometry" />
        </mxCell>
        <mxCell id="wiblz_3YF7afEmMh0GSC-14" value=".Correo Electronico" style="text;strokeColor=none;fillColor=none;align=left;verticalAlign=middle;spacingLeft=4;spacingRight=4;overflow=hidden;points=[[0,0.5],[1,0.5]];portConstraint=eastwest;rotatable=0;whiteSpace=wrap;html=1;" vertex="1" parent="wiblz_3YF7afEmMh0GSC-5">
          <mxGeometry y="150" width="160" height="30" as="geometry" />
        </mxCell>
        <mxCell id="wiblz_3YF7afEmMh0GSC-15" value=".Telefono" style="text;strokeColor=none;fillColor=none;align=left;verticalAlign=middle;spacingLeft=4;spacingRight=4;overflow=hidden;points=[[0,0.5],[1,0.5]];portConstraint=eastwest;rotatable=0;whiteSpace=wrap;html=1;" vertex="1" parent="wiblz_3YF7afEmMh0GSC-5">
          <mxGeometry y="180" width="160" height="30" as="geometry" />
        </mxCell>
        <mxCell id="wiblz_3YF7afEmMh0GSC-16" value=".Localidad" style="text;strokeColor=none;fillColor=none;align=left;verticalAlign=middle;spacingLeft=4;spacingRight=4;overflow=hidden;points=[[0,0.5],[1,0.5]];portConstraint=eastwest;rotatable=0;whiteSpace=wrap;html=1;" vertex="1" parent="wiblz_3YF7afEmMh0GSC-5">
          <mxGeometry y="210" width="160" height="30" as="geometry" />
        </mxCell>
        <mxCell id="wiblz_3YF7afEmMh0GSC-17" value="Clientes" style="swimlane;fontStyle=0;childLayout=stackLayout;horizontal=1;startSize=30;horizontalStack=0;resizeParent=1;resizeParentMax=0;resizeLast=0;collapsible=1;marginBottom=0;whiteSpace=wrap;html=1;" vertex="1" parent="1">
          <mxGeometry x="2160" y="1240" width="160" height="240" as="geometry" />
        </mxCell>
        <mxCell id="wiblz_3YF7afEmMh0GSC-18" value=".Id de Clientes (PK)" style="text;strokeColor=none;fillColor=none;align=left;verticalAlign=middle;spacingLeft=4;spacingRight=4;overflow=hidden;points=[[0,0.5],[1,0.5]];portConstraint=eastwest;rotatable=0;whiteSpace=wrap;html=1;" vertex="1" parent="wiblz_3YF7afEmMh0GSC-17">
          <mxGeometry y="30" width="160" height="30" as="geometry" />
        </mxCell>
        <mxCell id="wiblz_3YF7afEmMh0GSC-19" value=".Nombre&amp;nbsp;" style="text;strokeColor=none;fillColor=none;align=left;verticalAlign=middle;spacingLeft=4;spacingRight=4;overflow=hidden;points=[[0,0.5],[1,0.5]];portConstraint=eastwest;rotatable=0;whiteSpace=wrap;html=1;" vertex="1" parent="wiblz_3YF7afEmMh0GSC-17">
          <mxGeometry y="60" width="160" height="30" as="geometry" />
        </mxCell>
        <mxCell id="wiblz_3YF7afEmMh0GSC-20" value=".Apellido&amp;nbsp;" style="text;strokeColor=none;fillColor=none;align=left;verticalAlign=middle;spacingLeft=4;spacingRight=4;overflow=hidden;points=[[0,0.5],[1,0.5]];portConstraint=eastwest;rotatable=0;whiteSpace=wrap;html=1;" vertex="1" parent="wiblz_3YF7afEmMh0GSC-17">
          <mxGeometry y="90" width="160" height="30" as="geometry" />
        </mxCell>
        <mxCell id="wiblz_3YF7afEmMh0GSC-21" value=".Edad&amp;nbsp;" style="text;strokeColor=none;fillColor=none;align=left;verticalAlign=middle;spacingLeft=4;spacingRight=4;overflow=hidden;points=[[0,0.5],[1,0.5]];portConstraint=eastwest;rotatable=0;whiteSpace=wrap;html=1;" vertex="1" parent="wiblz_3YF7afEmMh0GSC-17">
          <mxGeometry y="120" width="160" height="30" as="geometry" />
        </mxCell>
        <mxCell id="wiblz_3YF7afEmMh0GSC-22" value=".Correo Electronico" style="text;strokeColor=none;fillColor=none;align=left;verticalAlign=middle;spacingLeft=4;spacingRight=4;overflow=hidden;points=[[0,0.5],[1,0.5]];portConstraint=eastwest;rotatable=0;whiteSpace=wrap;html=1;" vertex="1" parent="wiblz_3YF7afEmMh0GSC-17">
          <mxGeometry y="150" width="160" height="30" as="geometry" />
        </mxCell>
        <mxCell id="wiblz_3YF7afEmMh0GSC-23" value=".Telefono" style="text;strokeColor=none;fillColor=none;align=left;verticalAlign=middle;spacingLeft=4;spacingRight=4;overflow=hidden;points=[[0,0.5],[1,0.5]];portConstraint=eastwest;rotatable=0;whiteSpace=wrap;html=1;" vertex="1" parent="wiblz_3YF7afEmMh0GSC-17">
          <mxGeometry y="180" width="160" height="30" as="geometry" />
        </mxCell>
        <mxCell id="wiblz_3YF7afEmMh0GSC-24" value=".Direccion" style="text;strokeColor=none;fillColor=none;align=left;verticalAlign=middle;spacingLeft=4;spacingRight=4;overflow=hidden;points=[[0,0.5],[1,0.5]];portConstraint=eastwest;rotatable=0;whiteSpace=wrap;html=1;" vertex="1" parent="wiblz_3YF7afEmMh0GSC-17">
          <mxGeometry y="210" width="160" height="30" as="geometry" />
        </mxCell>
        <mxCell id="wiblz_3YF7afEmMh0GSC-25" value="Productos" style="swimlane;fontStyle=0;childLayout=stackLayout;horizontal=1;startSize=30;horizontalStack=0;resizeParent=1;resizeParentMax=0;resizeLast=0;collapsible=1;marginBottom=0;whiteSpace=wrap;html=1;" vertex="1" parent="1">
          <mxGeometry x="1360" y="1720" width="160" height="180" as="geometry">
            <mxRectangle x="1360" y="1720" width="90" height="30" as="alternateBounds" />
          </mxGeometry>
        </mxCell>
        <mxCell id="wiblz_3YF7afEmMh0GSC-26" value=".Id de Producto&amp;nbsp;(PK)" style="text;strokeColor=none;fillColor=none;align=left;verticalAlign=middle;spacingLeft=4;spacingRight=4;overflow=hidden;points=[[0,0.5],[1,0.5]];portConstraint=eastwest;rotatable=0;whiteSpace=wrap;html=1;" vertex="1" parent="wiblz_3YF7afEmMh0GSC-25">
          <mxGeometry y="30" width="160" height="30" as="geometry" />
        </mxCell>
        <mxCell id="wiblz_3YF7afEmMh0GSC-27" value=".Nombre&amp;nbsp;" style="text;strokeColor=none;fillColor=none;align=left;verticalAlign=middle;spacingLeft=4;spacingRight=4;overflow=hidden;points=[[0,0.5],[1,0.5]];portConstraint=eastwest;rotatable=0;whiteSpace=wrap;html=1;" vertex="1" parent="wiblz_3YF7afEmMh0GSC-25">
          <mxGeometry y="60" width="160" height="30" as="geometry" />
        </mxCell>
        <mxCell id="wiblz_3YF7afEmMh0GSC-28" value=".Stock&amp;nbsp;" style="text;strokeColor=none;fillColor=none;align=left;verticalAlign=middle;spacingLeft=4;spacingRight=4;overflow=hidden;points=[[0,0.5],[1,0.5]];portConstraint=eastwest;rotatable=0;whiteSpace=wrap;html=1;" vertex="1" parent="wiblz_3YF7afEmMh0GSC-25">
          <mxGeometry y="90" width="160" height="30" as="geometry" />
        </mxCell>
        <mxCell id="wiblz_3YF7afEmMh0GSC-29" value=".Color&amp;nbsp;" style="text;strokeColor=none;fillColor=none;align=left;verticalAlign=middle;spacingLeft=4;spacingRight=4;overflow=hidden;points=[[0,0.5],[1,0.5]];portConstraint=eastwest;rotatable=0;whiteSpace=wrap;html=1;" vertex="1" parent="wiblz_3YF7afEmMh0GSC-25">
          <mxGeometry y="120" width="160" height="30" as="geometry" />
        </mxCell>
        <mxCell id="wiblz_3YF7afEmMh0GSC-30" value=".Precio" style="text;strokeColor=none;fillColor=none;align=left;verticalAlign=middle;spacingLeft=4;spacingRight=4;overflow=hidden;points=[[0,0.5],[1,0.5]];portConstraint=eastwest;rotatable=0;whiteSpace=wrap;html=1;" vertex="1" parent="wiblz_3YF7afEmMh0GSC-25">
          <mxGeometry y="150" width="160" height="30" as="geometry" />
        </mxCell>
        <mxCell id="wiblz_3YF7afEmMh0GSC-33" value="Publicaciones" style="swimlane;fontStyle=0;childLayout=stackLayout;horizontal=1;startSize=30;horizontalStack=0;resizeParent=1;resizeParentMax=0;resizeLast=0;collapsible=1;marginBottom=0;whiteSpace=wrap;html=1;" vertex="1" parent="1">
          <mxGeometry x="1760" y="1720" width="160" height="150" as="geometry" />
        </mxCell>
        <mxCell id="wiblz_3YF7afEmMh0GSC-34" value=".Id de Publicacion (PK)" style="text;strokeColor=none;fillColor=none;align=left;verticalAlign=middle;spacingLeft=4;spacingRight=4;overflow=hidden;points=[[0,0.5],[1,0.5]];portConstraint=eastwest;rotatable=0;whiteSpace=wrap;html=1;" vertex="1" parent="wiblz_3YF7afEmMh0GSC-33">
          <mxGeometry y="30" width="160" height="30" as="geometry" />
        </mxCell>
        <mxCell id="wiblz_3YF7afEmMh0GSC-35" value=".Id del Vendedor (FK)" style="text;strokeColor=none;fillColor=none;align=left;verticalAlign=middle;spacingLeft=4;spacingRight=4;overflow=hidden;points=[[0,0.5],[1,0.5]];portConstraint=eastwest;rotatable=0;whiteSpace=wrap;html=1;" vertex="1" parent="wiblz_3YF7afEmMh0GSC-33">
          <mxGeometry y="60" width="160" height="30" as="geometry" />
        </mxCell>
        <mxCell id="wiblz_3YF7afEmMh0GSC-36" value=".Id del Producto (FK)" style="text;strokeColor=none;fillColor=none;align=left;verticalAlign=middle;spacingLeft=4;spacingRight=4;overflow=hidden;points=[[0,0.5],[1,0.5]];portConstraint=eastwest;rotatable=0;whiteSpace=wrap;html=1;" vertex="1" parent="wiblz_3YF7afEmMh0GSC-33">
          <mxGeometry y="90" width="160" height="30" as="geometry" />
        </mxCell>
        <mxCell id="wiblz_3YF7afEmMh0GSC-37" value=".Descripcion" style="text;strokeColor=none;fillColor=none;align=left;verticalAlign=middle;spacingLeft=4;spacingRight=4;overflow=hidden;points=[[0,0.5],[1,0.5]];portConstraint=eastwest;rotatable=0;whiteSpace=wrap;html=1;" vertex="1" parent="wiblz_3YF7afEmMh0GSC-33">
          <mxGeometry y="120" width="160" height="30" as="geometry" />
        </mxCell>
        <mxCell id="wiblz_3YF7afEmMh0GSC-41" value="Ventas" style="swimlane;fontStyle=0;childLayout=stackLayout;horizontal=1;startSize=30;horizontalStack=0;resizeParent=1;resizeParentMax=0;resizeLast=0;collapsible=1;marginBottom=0;whiteSpace=wrap;html=1;" vertex="1" parent="1">
          <mxGeometry x="2160" y="1720" width="160" height="90" as="geometry" />
        </mxCell>
        <mxCell id="wiblz_3YF7afEmMh0GSC-42" value=".Id de Publicacion (PK) (FK)" style="text;strokeColor=none;fillColor=none;align=left;verticalAlign=middle;spacingLeft=4;spacingRight=4;overflow=hidden;points=[[0,0.5],[1,0.5]];portConstraint=eastwest;rotatable=0;whiteSpace=wrap;html=1;" vertex="1" parent="wiblz_3YF7afEmMh0GSC-41">
          <mxGeometry y="30" width="160" height="30" as="geometry" />
        </mxCell>
        <mxCell id="wiblz_3YF7afEmMh0GSC-43" value=".Precio&amp;nbsp;" style="text;strokeColor=none;fillColor=none;align=left;verticalAlign=middle;spacingLeft=4;spacingRight=4;overflow=hidden;points=[[0,0.5],[1,0.5]];portConstraint=eastwest;rotatable=0;whiteSpace=wrap;html=1;" vertex="1" parent="wiblz_3YF7afEmMh0GSC-41">
          <mxGeometry y="60" width="160" height="30" as="geometry" />
        </mxCell>
        <mxCell id="wiblz_3YF7afEmMh0GSC-47" value="" style="rhombus;whiteSpace=wrap;html=1;" vertex="1" parent="1">
          <mxGeometry x="1800" y="1560" width="80" height="80" as="geometry" />
        </mxCell>
        <mxCell id="wiblz_3YF7afEmMh0GSC-48" value="" style="rhombus;whiteSpace=wrap;html=1;" vertex="1" parent="1">
          <mxGeometry x="2200" y="1560" width="80" height="80" as="geometry" />
        </mxCell>
        <mxCell id="wiblz_3YF7afEmMh0GSC-49" value="Publicar" style="text;html=1;align=center;verticalAlign=middle;whiteSpace=wrap;rounded=0;" vertex="1" parent="1">
          <mxGeometry x="1810" y="1585" width="60" height="30" as="geometry" />
        </mxCell>
        <mxCell id="wiblz_3YF7afEmMh0GSC-50" value="Comprar" style="text;html=1;align=center;verticalAlign=middle;whiteSpace=wrap;rounded=0;" vertex="1" parent="1">
          <mxGeometry x="2210" y="1585" width="60" height="30" as="geometry" />
        </mxCell>
        <mxCell id="wiblz_3YF7afEmMh0GSC-51" value="" style="rhombus;whiteSpace=wrap;html=1;" vertex="1" parent="1">
          <mxGeometry x="2000" y="1760" width="80" height="80" as="geometry" />
        </mxCell>
        <mxCell id="wiblz_3YF7afEmMh0GSC-52" value="Vender" style="text;html=1;align=center;verticalAlign=middle;whiteSpace=wrap;rounded=0;" vertex="1" parent="1">
          <mxGeometry x="2010" y="1785" width="60" height="30" as="geometry" />
        </mxCell>
        <mxCell id="wiblz_3YF7afEmMh0GSC-53" value="" style="endArrow=classic;startArrow=classic;html=1;rounded=0;exitX=0.5;exitY=0;exitDx=0;exitDy=0;entryX=0.5;entryY=1;entryDx=0;entryDy=0;" edge="1" parent="1" source="wiblz_3YF7afEmMh0GSC-33" target="wiblz_3YF7afEmMh0GSC-47">
          <mxGeometry width="50" height="50" relative="1" as="geometry">
            <mxPoint x="1770" y="1660" as="sourcePoint" />
            <mxPoint x="1820" y="1610" as="targetPoint" />
          </mxGeometry>
        </mxCell>
        <mxCell id="wiblz_3YF7afEmMh0GSC-54" value="" style="endArrow=classic;startArrow=classic;html=1;rounded=0;exitX=0.5;exitY=0;exitDx=0;exitDy=0;entryX=0.502;entryY=1.015;entryDx=0;entryDy=0;entryPerimeter=0;" edge="1" parent="1" source="wiblz_3YF7afEmMh0GSC-47" target="wiblz_3YF7afEmMh0GSC-16">
          <mxGeometry width="50" height="50" relative="1" as="geometry">
            <mxPoint x="1780" y="1600" as="sourcePoint" />
            <mxPoint x="1830" y="1550" as="targetPoint" />
          </mxGeometry>
        </mxCell>
        <mxCell id="wiblz_3YF7afEmMh0GSC-58" value="" style="endArrow=classic;startArrow=classic;html=1;rounded=0;exitX=0;exitY=0.5;exitDx=0;exitDy=0;entryX=0.996;entryY=0.691;entryDx=0;entryDy=0;entryPerimeter=0;" edge="1" parent="1" source="wiblz_3YF7afEmMh0GSC-51" target="wiblz_3YF7afEmMh0GSC-35">
          <mxGeometry width="50" height="50" relative="1" as="geometry">
            <mxPoint x="1900" y="1730" as="sourcePoint" />
            <mxPoint x="1950" y="1680" as="targetPoint" />
          </mxGeometry>
        </mxCell>
        <mxCell id="wiblz_3YF7afEmMh0GSC-59" value="" style="endArrow=classic;startArrow=classic;html=1;rounded=0;exitX=-0.01;exitY=0.691;exitDx=0;exitDy=0;exitPerimeter=0;entryX=1;entryY=0.5;entryDx=0;entryDy=0;" edge="1" parent="1" source="wiblz_3YF7afEmMh0GSC-43" target="wiblz_3YF7afEmMh0GSC-51">
          <mxGeometry width="50" height="50" relative="1" as="geometry">
            <mxPoint x="2040" y="1800" as="sourcePoint" />
            <mxPoint x="2090" y="1750" as="targetPoint" />
          </mxGeometry>
        </mxCell>
        <mxCell id="wiblz_3YF7afEmMh0GSC-60" value="" style="endArrow=classic;startArrow=classic;html=1;rounded=0;exitX=0.5;exitY=0;exitDx=0;exitDy=0;" edge="1" parent="1" source="wiblz_3YF7afEmMh0GSC-41">
          <mxGeometry width="50" height="50" relative="1" as="geometry">
            <mxPoint x="2190" y="1650" as="sourcePoint" />
            <mxPoint x="2240" y="1640" as="targetPoint" />
          </mxGeometry>
        </mxCell>
        <mxCell id="wiblz_3YF7afEmMh0GSC-61" value="" style="endArrow=classic;startArrow=classic;html=1;rounded=0;exitX=0.5;exitY=0;exitDx=0;exitDy=0;entryX=0.501;entryY=0.996;entryDx=0;entryDy=0;entryPerimeter=0;" edge="1" parent="1" source="wiblz_3YF7afEmMh0GSC-48" target="wiblz_3YF7afEmMh0GSC-24">
          <mxGeometry width="50" height="50" relative="1" as="geometry">
            <mxPoint x="2210" y="1520" as="sourcePoint" />
            <mxPoint x="2260" y="1470" as="targetPoint" />
          </mxGeometry>
        </mxCell>
        <mxCell id="wiblz_3YF7afEmMh0GSC-62" value="" style="rhombus;whiteSpace=wrap;html=1;" vertex="1" parent="1">
          <mxGeometry x="1600" y="1760" width="80" height="80" as="geometry" />
        </mxCell>
        <mxCell id="wiblz_3YF7afEmMh0GSC-63" value="&amp;nbsp;Rellenar" style="text;html=1;align=center;verticalAlign=middle;whiteSpace=wrap;rounded=0;" vertex="1" parent="1">
          <mxGeometry x="1610" y="1785" width="60" height="30" as="geometry" />
        </mxCell>
        <mxCell id="wiblz_3YF7afEmMh0GSC-64" value="" style="endArrow=classic;startArrow=classic;html=1;rounded=0;exitX=1.005;exitY=0.658;exitDx=0;exitDy=0;exitPerimeter=0;entryX=0;entryY=0.5;entryDx=0;entryDy=0;" edge="1" parent="1" source="wiblz_3YF7afEmMh0GSC-27" target="wiblz_3YF7afEmMh0GSC-62">
          <mxGeometry width="50" height="50" relative="1" as="geometry">
            <mxPoint x="1570" y="1760" as="sourcePoint" />
            <mxPoint x="1620" y="1710" as="targetPoint" />
          </mxGeometry>
        </mxCell>
        <mxCell id="wiblz_3YF7afEmMh0GSC-65" value="" style="endArrow=classic;startArrow=classic;html=1;rounded=0;exitX=1.005;exitY=0.658;exitDx=0;exitDy=0;exitPerimeter=0;entryX=0;entryY=0.5;entryDx=0;entryDy=0;" edge="1" parent="1">
          <mxGeometry width="50" height="50" relative="1" as="geometry">
            <mxPoint x="1681" y="1799.67" as="sourcePoint" />
            <mxPoint x="1760" y="1799.67" as="targetPoint" />
          </mxGeometry>
        </mxCell>
        <mxCell id="wiblz_3YF7afEmMh0GSC-66" value="( 1 : M )" style="text;html=1;align=center;verticalAlign=middle;whiteSpace=wrap;rounded=0;rotation=90;" vertex="1" parent="1">
          <mxGeometry x="1830" y="1510" width="60" height="30" as="geometry" />
        </mxCell>
        <mxCell id="wiblz_3YF7afEmMh0GSC-67" value="( 1 : 1 )" style="text;html=1;align=center;verticalAlign=middle;whiteSpace=wrap;rounded=0;rotation=90;" vertex="1" parent="1">
          <mxGeometry x="1830" y="1660" width="60" height="30" as="geometry" />
        </mxCell>
        <mxCell id="wiblz_3YF7afEmMh0GSC-68" value="( 1 : 1 )" style="text;html=1;align=center;verticalAlign=middle;whiteSpace=wrap;rounded=0;rotation=0;" vertex="1" parent="1">
          <mxGeometry x="1530" y="1770" width="60" height="30" as="geometry" />
        </mxCell>
        <mxCell id="wiblz_3YF7afEmMh0GSC-69" value="( 1 : 1 )" style="text;html=1;align=center;verticalAlign=middle;whiteSpace=wrap;rounded=0;rotation=0;" vertex="1" parent="1">
          <mxGeometry x="1690" y="1770" width="60" height="30" as="geometry" />
        </mxCell>
        <mxCell id="wiblz_3YF7afEmMh0GSC-70" value="( 1 : M )" style="text;html=1;align=center;verticalAlign=middle;whiteSpace=wrap;rounded=0;rotation=0;" vertex="1" parent="1">
          <mxGeometry x="1930" y="1770" width="60" height="30" as="geometry" />
        </mxCell>
        <mxCell id="wiblz_3YF7afEmMh0GSC-71" value="( 1 : 1 )" style="text;html=1;align=center;verticalAlign=middle;whiteSpace=wrap;rounded=0;rotation=0;" vertex="1" parent="1">
          <mxGeometry x="2090" y="1770" width="60" height="30" as="geometry" />
        </mxCell>
        <mxCell id="wiblz_3YF7afEmMh0GSC-72" value="( 1 : M )" style="text;html=1;align=center;verticalAlign=middle;whiteSpace=wrap;rounded=0;rotation=90;" vertex="1" parent="1">
          <mxGeometry x="2230" y="1510" width="60" height="30" as="geometry" />
        </mxCell>
        <mxCell id="wiblz_3YF7afEmMh0GSC-73" value="( 1 : 1 )" style="text;html=1;align=center;verticalAlign=middle;whiteSpace=wrap;rounded=0;rotation=90;" vertex="1" parent="1">
          <mxGeometry x="2230" y="1660" width="60" height="30" as="geometry" />
        </mxCell>
      </root>
    </mxGraphModel>
  </diagram>
</mxfile>
